Coordinates
version=1
nRows=9
nColumns=63
inDegrees=yes

Units are S.I. units (second, meters, Newtons, ...)
If the header above contains a line with 'inDegrees', this indicates whether rotational values are in degrees (yes) or radians (no).

endheader
time	pelvis_tilt	pelvis_list	pelvis_rotation	pelvis_tx	pelvis_ty	pelvis_tz	hip_flexion_r	hip_adduction_r	hip_rotation_r	knee_angle_r	knee_angle_r_beta	ankle_angle_r	subtalar_angle_r	mtp_angle_r	hip_flexion_l	hip_adduction_l	hip_rotation_l	knee_angle_l	knee_angle_l_beta	ankle_angle_l	subtalar_angle_l	mtp_angle_l	L5_S1_Flex_Ext	L5_S1_Lat_Bending	L5_S1_axial_rotation	L4_L5_Flex_Ext	L4_L5_Lat_Bending	L4_L5_axial_rotation	L3_L4_Flex_Ext	L3_L4_Lat_Bending	L3_L4_axial_rotation	L2_L3_Flex_Ext	L2_L3_Lat_Bending	L2_L3_axial_rotation	L1_L2_Flex_Ext	L1_L2_Lat_Bending	L1_L2_axial_rotation	L1_T12_Flex_Ext	L1_T12_Lat_Bending	L1_T12_axial_rotation	Abs_r3	Abs_r2	Abs_r1	Abs_t1	Abs_t2	neck_flexion	neck_bending	neck_rotation	arm_flex_r	arm_add_r	arm_rot_r	elbow_flex_r	pro_sup_r	wrist_flex_r	wrist_dev_r	arm_flex_l	arm_add_l	arm_rot_l	elbow_flex_l	pro_sup_l	wrist_flex_l	wrist_dev_l
      1.60000000	      2.70602488	     -6.76566557	     89.70993359	      0.14139332	      0.94212594	      0.66335115	     -5.82805543	      4.76252451	     -5.59728400	      2.08707196	      0.03642628	     20.90438113	      3.54597987	      0.00000000	     -2.03809305	     -3.71268270	     -4.52495907	     11.63004194	      0.20298252	     32.51944891	      5.81377499	      0.00000000	     -0.36210784	      0.52232306	     -0.62053502	     -0.67247048	      0.69468967	     -0.65931845	     -0.59490698	      1.26997628	     -0.65931845	     -0.41385306	      1.26997628	     -0.54296814	     -0.33625334	      1.06512118	     -0.50418470	     -0.20690842	      0.80907842	     -0.46540126	     -2.58650012	      5.90862290	     -3.45122960	      0.00000000	      0.00000000	     12.34173637	     -3.28842189	    -12.18465056	    -16.16386471	    -17.01122096	      4.82820255	     45.07668546	     72.17726169	    -11.47219967	     10.84772105	    -11.79339771	    -12.36206874	     26.61163258	     26.17997400	     80.49558173	    -15.36793428	     -3.13685603
      1.61666667	      2.69875715	     -6.63532352	     90.26161668	      0.14155602	      0.94031967	      0.66357575	     -6.01267812	      4.87049705	     -6.09134632	      2.09362772	      0.03654070	     21.20731586	      3.13363867	      0.00000000	     -1.83691556	     -3.85531043	     -4.38046774	     12.25567543	      0.21390189	     32.92598797	      5.99007490	      0.00000000	     -0.40278448	      0.49766925	     -0.76161207	     -0.74801106	      0.66190010	     -0.80921283	     -0.66173463	      1.21003300	     -0.80921283	     -0.46034238	      1.21003300	     -0.66641056	     -0.37402567	      1.01484713	     -0.61880981	     -0.23015105	      0.77088966	     -0.57120905	     -2.87704927	      5.62973404	     -4.23585787	      0.00000000	      0.00000000	     12.05936170	     -3.01575741	    -13.58570659	    -12.99131902	    -16.03675287	      8.04205525	     37.42141839	     72.57142243	     -9.61945794	     10.63817037	     -9.94767398	    -11.55694598	     29.64465270	     20.73484627	     79.63833323	    -11.64385966	     -1.58333098
      1.63333333	      2.82949156	     -6.67440815	     90.50099794	      0.14172580	      0.93873579	      0.66369987	     -5.99577999	      5.04865281	     -6.79241932	      2.11750576	      0.03695745	     21.49190867	      3.52316101	      0.00000000	     -1.50157935	     -4.16900952	     -5.11620711	     12.89959445	      0.22514040	     33.44667954	      6.94091757	      0.00000000	     -0.41648057	      0.50973670	     -0.90484826	     -0.77344607	      0.67794982	     -0.96140127	     -0.68423593	      1.23937382	     -0.96140127	     -0.47599565	      1.23937382	     -0.79174222	     -0.38674386	      1.03945509	     -0.73518921	     -0.23797700	      0.78958216	     -0.67863619	     -2.97487909	      5.76624355	     -5.03249455	      0.00000000	      0.00000000	     11.64582998	     -2.73164649	    -13.50977190	     -9.80159795	    -15.78302680	     13.86867170	     30.93557628	     75.12152125	     -9.05836375	      9.08974297	     -2.57172700	    -11.24026430	    101.62681858	     11.27661008	      9.96953890	     -7.84512024	     -7.89641542
      1.65000000	      2.53930492	     -6.73369321	     90.64665964	      0.14317082	      0.93684259	      0.66389278	     -5.95841840	      4.87801721	     -6.90273581	      2.10773028	      0.03678683	     21.83126312	      3.10292367	      0.00000000	     -1.15123619	     -4.12525890	     -5.95714815	     13.49871916	      0.23559709	     33.99132755	      8.12852988	      0.00000000	     -0.44225001	      0.44856103	     -1.15767759	     -0.82130249	      0.59658617	     -1.23003244	     -0.72657254	      1.09063128	     -1.23003244	     -0.50544754	      1.09063128	     -1.01296789	     -0.41067336	      0.91470565	     -0.94061304	     -0.25270166	      0.69482103	     -0.86825819	     -3.15894760	      5.07421205	     -6.43865545	      0.00000000	      0.00000000	     11.66038308	     -1.68154192	    -13.23768280	     -6.68664964	    -15.34215525	     20.77499909	     26.32706244	     77.62170118	     -8.61993254	      7.91672501	     -2.81739636	    -11.69102225	    101.51368217	     11.97302312	      9.61722920	     -7.04949506	     -4.30236568
      1.66666667	      2.17613760	     -6.96461211	     90.39356682	      0.14489175	      0.93578831	      0.66413001	     -5.67423922	      4.56555171	     -6.89633957	      2.16426771	      0.03777360	     21.96740691	      2.99673731	      0.00000000	     -0.70809758	     -3.86649905	     -6.26607780	     13.90208883	      0.24263722	     34.23603498	      8.27478045	      0.00000000	     -0.44380133	      0.38778762	     -1.32193161	     -0.82418346	      0.51575754	     -1.40455234	     -0.72912121	      0.94286683	     -1.40455234	     -0.50722054	      0.94286683	     -1.15669016	     -0.41211392	      0.79077652	     -1.07406944	     -0.25358808	      0.60068303	     -0.99144871	     -3.17002854	      4.38673116	     -7.35218706	      0.00000000	      0.00000000	     11.53128684	     -0.86142032	    -13.01766094	     -5.34153741	    -14.32091659	     20.98794954	     24.89593232	     77.40725066	     -8.33134558	      7.91268269	     -2.93911145	    -12.03290396	    101.68982470	     12.59663512	      9.52997082	     -6.74092404	     -2.97027999
      1.68333333	      1.70717269	     -7.26824306	     90.08063664	      0.14668754	      0.93595476	      0.66432273	     -5.28926695	      4.16357525	     -6.07634881	      2.21174286	      0.03860220	     21.68735264	      1.78286372	      0.00000000	     -0.27753688	     -3.68583538	     -8.18461241	     14.07578411	      0.24566878	     34.48772529	     10.81033593	      0.00000000	     -0.43026896	      0.31578968	     -1.51601263	     -0.79905248	      0.42000028	     -1.61076342	     -0.70688887	      0.76781103	     -1.61076342	     -0.49175439	      0.76781103	     -1.32651105	     -0.39954775	      0.64395832	     -1.23176026	     -0.24585568	      0.48915822	     -1.13700948	     -3.07336812	      3.57227604	     -8.43160747	      0.00000000	      0.00000000	     11.13660457	      0.31537054	    -12.35370458	     -4.55600618	    -14.09067370	     22.70524634	     25.63088449	     69.28863382	     -8.76833900	      6.01100053	     -2.93423122	    -12.26416484	    103.45664359	     12.97394090	      7.49610889	     -6.42291850	     -3.32593705
      1.70000000	      1.31009901	     -7.60923694	     89.49875093	      0.14819303	      0.93706310	      0.66439848	     -4.80075831	      3.73478252	     -5.86317604	      2.37212687	      0.04140142	     21.40185262	      1.96143086	      0.00000000	      0.10285696	     -3.27179003	     -8.38258300	     14.00328117	      0.24440336	     34.20913908	     10.60745462	      0.00000000	     -0.40508504	      0.26028743	     -1.60842170	     -0.75228342	      0.34618228	     -1.70894806	     -0.66551421	      0.63286285	     -1.70894806	     -0.46297169	      0.63286285	     -1.40736899	     -0.37616197	      0.53077812	     -1.30684264	     -0.23146559	      0.40318523	     -1.20631628	     -2.89348191	      2.94442344	     -8.94555900	      0.00000000	      0.00000000	     10.27558429	      0.95988888	    -12.36058763	     -5.06474078	    -14.07384427	     19.68080243	     29.37532532	     68.47115451	     -9.79893776	      4.72158517	     -3.07891683	    -12.35745708	    102.37877691	     13.08780907	      6.87722691	     -5.99025001	     -5.10377824
      1.71666667	      1.07376405	     -7.96192265	     88.78440322	      0.14911447	      0.93859981	      0.66428619	     -4.29157603	      3.41479716	     -5.44353799	      2.56529027	      0.04477276	     20.97479404	      2.15183401	      0.00000000	      0.39796287	     -2.96627954	     -8.53042664	     13.77148825	      0.24035781	     33.76822696	     10.19260246	      0.00000000	     -0.37091472	      0.24014916	     -1.56577415	     -0.68882573	      0.31939839	     -1.66363503	     -0.60937579	      0.58389868	     -1.66363503	     -0.42391843	      0.58389868	     -1.37005238	     -0.34443141	      0.48971217	     -1.27219150	     -0.21194067	      0.37199105	     -1.17433061	     -2.64940675	      2.71661537	     -8.70836609	      0.00000000	      0.00000000	      9.13178517	      0.89170359	    -12.97886138	     -7.19633558	    -13.68805633	     10.53644976	     36.29973080	     77.27463005	     -9.11989544	      5.96742502	     -3.10637749	    -12.28812515	     98.78490144	     13.07217304	      8.39669792	     -5.36367550	     -6.98139306
      1.73333333	      1.13342500	     -8.24321131	     88.04912107	      0.14949330	      0.94034997	      0.66414022	     -3.88907394	      3.37349553	     -5.12901549	      2.71784372	      0.04743532	     20.47539649	      2.60857972	      0.00000000	      0.59863976	     -2.95430574	     -8.75073724	     13.58658070	      0.23713057	     33.32683957	      9.74473885	      0.00000000	     -0.34165910	      0.26517006	     -1.48999901	     -0.63449512	      0.35267618	     -1.58312395	     -0.56131174	      0.64473449	     -1.58312395	     -0.39048219	      0.64473449	     -1.30374914	     -0.31726464	      0.54073479	     -1.21062420	     -0.19522401	      0.41074843	     -1.11749926	     -2.44043681	      2.99965678	     -8.28692751	      0.00000000	      0.00000000	      7.64643877	      0.52952607	    -13.41155073	     -9.13504977	    -14.56401559	      7.43405238	     44.57839219	     78.53282030	    -10.55395163	      5.48039390	     -2.84863377	    -11.98537868	     97.21563842	     12.89800476	      8.23807136	     -4.56170236	     -9.83653591
